HIERARCHY
ROOT joint_Root
{
	OFFSET 0.0 0.0 0.0
	CHANNELS 6 Xposition Yposition Zposition Zrotation Xrotation Yrotation 
	JOINT Hips
	{
		OFFSET -17.1583 93.1646 452.98
		CHANNELS 6 Xposition Yposition Zposition Zrotation Xrotation Yrotation 
		JOINT Spine
		{
			OFFSET 15.7357 0.0 0.0
			CHANNELS 6 Xposition Yposition Zposition Zrotation Xrotation Yrotation 
			JOINT Chest
			{
				OFFSET 8.98455 -0.406207 0.0
				CHANNELS 6 Xposition Yposition Zposition Zrotation Xrotation Yrotation 
				JOINT Neck
				{
					OFFSET 16.3773 0.0 0.0
					CHANNELS 6 Xposition Yposition Zposition Zrotation Xrotation Yrotation 
					JOINT Head
					{
						OFFSET 6.45672 0.0 0.0
						CHANNELS 6 Xposition Yposition Zposition Zrotation Xrotation Yrotation 
						End Site
						{
							OFFSET 0.0 0.0 0.0
						}
					}
				}
				JOINT Shoulder_L
				{
					OFFSET 12.9942 -0.242716 4.98039
					CHANNELS 6 Xposition Yposition Zposition Zrotation Xrotation Yrotation 
					JOINT UpperArm_L
					{
						OFFSET 5.34809 0.0 0.0
						CHANNELS 6 Xposition Yposition Zposition Zrotation Xrotation Yrotation 
						JOINT LowerArm_L
						{
							OFFSET 24.3286 1.87007e-05 0.0
							CHANNELS 6 Xposition Yposition Zposition Zrotation Xrotation Yrotation 
							JOINT Hand_L
							{
								OFFSET 22.2916 0.0 0.0
								CHANNELS 6 Xposition Yposition Zposition Zrotation Xrotation Yrotation 
								End Site
								{
									OFFSET 0.0 0.0 0.0
								}
							}
						}
					}
				}
				JOINT Shoulder_R
				{
					OFFSET 12.9945 -0.242716 -4.98039
					CHANNELS 6 Xposition Yposition Zposition Zrotation Xrotation Yrotation 
					JOINT UpperArm_R
					{
						OFFSET -5.34813 0.0 0.0
						CHANNELS 6 Xposition Yposition Zposition Zrotation Xrotation Yrotation 
						JOINT LowerArm_R
						{
							OFFSET -24.3289 0.000322201 0.0
							CHANNELS 6 Xposition Yposition Zposition Zrotation Xrotation Yrotation 
							JOINT Hand_R
							{
								OFFSET -22.2915 -0.000108084 0.0
								CHANNELS 6 Xposition Yposition Zposition Zrotation Xrotation Yrotation 
								End Site
								{
									OFFSET 0.0 0.0 0.0
								}
							}
						}
					}
				}
			}
		}
		JOINT UpperLeg_L
		{
			OFFSET -2.19248 -6.46944 0.0
			CHANNELS 6 Xposition Yposition Zposition Zrotation Xrotation Yrotation 
			JOINT LowerLeg_L
			{
				OFFSET 39.0811 0.0 -1.23785e-05
				CHANNELS 6 Xposition Yposition Zposition Zrotation Xrotation Yrotation 
				JOINT Foot_L
				{
					OFFSET 40.9854 0.0 -1.26872e-05
					CHANNELS 6 Xposition Yposition Zposition Zrotation Xrotation Yrotation 
					JOINT Toes_L
					{
						OFFSET 11.7543 0.0 0.0
						CHANNELS 6 Xposition Yposition Zposition Zrotation Xrotation Yrotation 
						End Site
						{
							OFFSET 0.0 0.0 0.0
						}
					}
				}
			}
		}
		JOINT UpperLeg_R
		{
			OFFSET -2.19251 6.46944 0.0
			CHANNELS 6 Xposition Yposition Zposition Zrotation Xrotation Yrotation 
			JOINT LowerLeg_R
			{
				OFFSET -39.0811 -0.00228153 -0.0401928
				CHANNELS 6 Xposition Yposition Zposition Zrotation Xrotation Yrotation 
				JOINT Foot_R
				{
					OFFSET -40.9854 0.0 0.0
					CHANNELS 6 Xposition Yposition Zposition Zrotation Xrotation Yrotation 
					JOINT Toes_R
					{
						OFFSET -11.7543 0.0 0.0
						CHANNELS 6 Xposition Yposition Zposition Zrotation Xrotation Yrotation 
						End Site
						{
							OFFSET 0.0 0.0 0.0
						}
					}
				}
			}
		}
	}
}
MOTION
Frames:	4
Frame Time:	0.0333333
0.000000 0.000000 0.000000 0.000000 0.000000 -0.000000 1.029130 92.586100 0.898255 88.045000 -1.843650 6.160370 15.735700 0.000005 -0.000001 116.214000 85.947700 -116.133000 8.984550 -0.406207 -0.000000 -0.496803 3.573430 0.176278 16.377300 -0.000001 -0.000001 0.797020 1.140840 0.170785 6.456720 -0.000001 -0.000000 6.176880 0.628333 8.217900 12.994200 -0.242716 4.980390 -92.113600 6.331540 -71.497500 5.348090 -0.000007 -0.000001 -72.007600 27.429100 -1.228610 24.328600 0.000019 0.000005 8.515610 24.641400 -19.754000 22.291600 -0.000001 0.000005 -4.712590 5.039540 6.465790 12.994500 -0.242716 -4.980390 88.757100 4.809700 -75.492200 -5.348130 -0.000001 -0.000004 -74.150700 29.979300 -1.841610 -24.328900 0.000322 -0.000009 0.692523 2.601060 -14.935900 -22.291500 -0.000108 -0.000004 2.161450 5.254770 1.306300 -2.192480 -6.469440 -0.000000 -174.042000 -3.946170 3.166020 39.081100 -0.000007 -0.000012 0.025611 -0.072684 19.410700 40.985400 -0.000006 -0.000013 0.312931 11.145100 -70.511100 11.754300 -0.000000 0.000003 -0.001036 0.183547 -9.131190 -2.192510 6.469440 -0.000001 175.400000 3.190860 -174.584000 -39.081100 -0.002282 -0.040193 0.017120 -0.053464 14.462200 -40.985400 0.000008 0.000006 -6.121050 8.506060 -68.986900 -11.754300 -0.000006 -0.000006 -0.010605 0.275775 -5.368140
0.000000 0.000000 0.000000 0.000000 0.000000 -0.000000 0.955106 92.607600 0.823209 88.040300 -1.977800 5.948400 15.735700 0.000005 -0.000001 117.344000 85.881500 -117.180000 8.984550 -0.406207 -0.000000 -0.454092 3.770910 0.344090 16.377300 -0.000001 -0.000001 0.229222 1.006730 0.683854 6.456720 -0.000001 -0.000000 5.679080 0.587828 8.928430 12.994200 -0.242716 4.980390 -92.180200 6.471690 -71.337000 5.348090 -0.000007 -0.000001 -70.871800 25.772400 -2.445660 24.328600 0.000019 0.000005 8.511170 25.809900 -18.969600 22.291600 -0.000001 0.000005 -5.617290 5.114290 4.774130 12.994500 -0.242716 -4.980390 88.804500 4.658300 -75.588900 -5.348130 -0.000001 -0.000004 -74.167000 29.531700 -1.972930 -24.328900 0.000322 -0.000009 0.604662 2.299500 -14.761200 -22.291500 -0.000108 -0.000004 2.236420 5.258810 1.198800 -2.192480 -6.469440 -0.000000 -173.982000 -4.113450 3.004390 39.081100 -0.000007 -0.000012 0.025930 -0.074130 19.279800 40.985400 -0.000006 -0.000013 0.242564 11.170700 -70.483900 11.754300 -0.000000 0.000003 -0.000888 0.181434 -9.217040 -2.192510 6.469440 -0.000001 175.501000 3.062930 -174.867000 -39.081100 -0.002282 -0.040193 0.018565 -0.059123 14.449100 -40.985400 0.000008 0.000006 -6.062110 8.472250 -68.950500 -11.754300 -0.000006 -0.000006 -0.010437 0.274544 -5.418480
0.000000 0.000000 0.000000 0.000000 0.000000 -0.000000 0.845774 92.633200 0.769676 88.040300 -1.959570 5.730210 15.735700 0.000005 -0.000001 118.458000 85.847300 -118.213000 8.984550 -0.406207 -0.000000 -0.471687 3.939220 0.504945 16.377300 -0.000001 -0.000001 -0.232692 0.862521 1.122570 6.456720 -0.000001 -0.000000 5.138550 0.432865 10.047800 12.994200 -0.242716 4.980390 -92.206300 6.445020 -71.057000 5.348090 -0.000007 -0.000001 -69.463900 21.913000 -4.576530 24.328600 0.000019 0.000005 7.331330 27.267400 -15.687400 22.291600 -0.000001 0.000005 -7.218770 5.223950 2.089990 12.994500 -0.242716 -4.980390 88.837600 4.560580 -75.685200 -5.348130 -0.000001 -0.000004 -74.238100 28.793000 -1.906090 -24.328900 0.000322 -0.000009 0.528440 2.036760 -14.575400 -22.291500 -0.000108 -0.000004 2.546080 5.255440 1.288620 -2.192480 -6.469440 -0.000000 -173.895000 -4.242440 2.835210 39.081100 -0.000007 -0.000012 0.023724 -0.068517 19.098800 40.985400 -0.000006 -0.000013 0.157298 11.296800 -70.393000 11.754300 -0.000000 0.000003 -0.000944 0.182237 -9.184420 -2.192510 6.469440 -0.000001 175.618000 2.987150 -175.086000 -39.081100 -0.002282 -0.040193 0.019145 -0.061736 14.367200 -40.985400 0.000008 0.000006 -6.026060 8.336860 -68.865500 -11.754300 -0.000006 -0.000006 -0.010377 0.274099 -5.436700
0.000000 0.000000 0.000000 0.000000 0.000000 -0.000000 0.727756 92.662100 0.714280 88.055700 -2.051230 5.425490 15.735700 0.000005 -0.000001 120.173000 85.876400 -119.828000 8.984550 -0.406207 -0.000000 -0.648024 4.118930 0.713616 16.377300 -0.000001 -0.000001 -0.611860 0.713960 1.560230 6.456720 -0.000001 -0.000000 4.732550 0.337824 11.396200 12.994200 -0.242716 4.980390 -92.188000 6.300470 -70.804700 5.348090 -0.000007 -0.000001 -67.965900 15.003800 -6.832130 24.328600 0.000019 0.000005 5.117600 27.570800 -10.950500 22.291600 -0.000001 0.000005 -9.295890 5.241050 1.675390 12.994500 -0.242716 -4.980390 88.867900 4.471520 -75.776500 -5.348130 -0.000001 -0.000004 -74.243400 28.236800 -1.818360 -24.328900 0.000322 -0.000009 0.472981 1.871410 -14.215400 -22.291500 -0.000108 -0.000004 2.621930 5.253160 1.349190 -2.192480 -6.469440 -0.000000 -173.824000 -4.389230 2.636590 39.081100 -0.000007 -0.000012 0.022116 -0.064764 18.854800 40.985400 -0.000006 -0.000013 0.048264 11.380600 -70.323200 11.754300 -0.000000 0.000003 -0.000960 0.182464 -9.175220 -2.192510 6.469440 -0.000001 175.749000 2.854540 -175.414000 -39.081100 -0.002282 -0.040193 0.021589 -0.071595 14.305800 -40.985400 0.000008 0.000006 -5.860990 8.211590 -68.877600 -11.754300 -0.000006 -0.000006 -0.010386 0.274169 -5.433850
